<svg width="89" height="75" viewBox="0 0 89 75" fill="none" xmlns="http://www.w3.org/2000/svg">
<g id="Group 3">
<g id="Group 2">
<path id="Vector" d="M20.6811 46.3878C19.3339 46.3878 18.0229 46.3865 16.7119 46.3878C14.0278 46.3904 11.341 46.4553 8.65817 46.3774C6.65413 46.3189 4.67988 45.9306 2.80538 45.1903C0.11605 44.1291 -0.19356 42.5354 0.0810732 40.2598C0.253367 38.8272 0.965858 37.6349 1.8908 36.5698C4.66693 33.3734 7.88609 30.7354 11.674 28.8209C14.0537 27.6182 16.4217 26.3895 18.8222 25.2296C22.0349 23.6775 24.3563 21.2422 26.0119 18.125C26.7477 16.7391 27.4446 15.3311 28.1727 13.9401C28.7038 12.9244 29.472 12.2126 30.6677 12.0996C31.6263 12.0087 32.3945 12.3516 32.9723 13.127C33.8946 14.3648 34.1524 15.7844 34.063 17.282C33.9685 18.8666 33.5474 20.3759 32.914 21.8267C32.8881 21.8851 32.8466 21.9371 32.7482 22.0968C32.673 20.733 32.3777 19.542 31.7688 18.4432C31.682 18.286 31.5939 18.125 31.4825 17.986C30.7415 17.0521 29.8865 16.9976 29.2284 17.9925C28.5354 19.0393 27.9499 20.1706 27.4369 21.3188C26.03 24.4711 23.8472 26.8999 20.812 28.5066C15.8453 31.1381 10.8526 33.7215 5.59964 35.7542C4.70061 36.1022 3.86635 36.6218 3.02172 37.0998C2.78206 37.2361 2.58386 37.4803 2.42064 37.7128C1.92189 38.4233 2.05532 39.2156 2.86627 39.4909C4.08398 39.904 5.34833 40.2521 6.62045 40.4196C10.4135 40.9223 14.2363 40.9885 18.0592 41.0132C18.9206 41.0184 19.7834 41.0145 20.6967 41.0145C21.1177 37.7258 22.2059 34.6787 24.127 31.9485C23.9275 32.4135 23.7202 32.8746 23.5298 33.3422C22.5867 35.6593 21.8276 38.0219 21.7058 40.5521C21.6877 40.9378 21.7641 41.0716 22.1554 41.0664C26.2645 41.008 30.3749 40.969 34.484 40.9054C36.8806 40.8677 39.2785 40.817 41.6737 40.7339C46.9682 40.5482 52.2601 40.3378 57.5545 40.1352C58.2204 40.1092 58.8862 40.0754 59.5521 40.0377C59.6739 40.0312 59.8099 40.0118 59.9096 39.9494C61.6144 38.9 62.6041 36.2438 62.0393 34.254C61.7595 33.2669 61.3994 32.9941 60.3954 33.1526C59.7231 33.2578 59.065 33.4617 58.4043 33.637C56.4262 34.1618 54.4545 34.2579 52.5075 33.5137C49.9088 32.52 48.8945 30.6679 49.335 27.913C49.8065 24.9608 51.2587 22.7384 53.9726 21.4136C55.3924 20.72 56.7125 20.7785 57.9937 21.8345C60.9019 24.2282 63.1534 27.0415 63.8542 30.8536C64.6315 35.0801 63.6379 38.9168 61.1804 42.4003C59.6 44.6408 57.5934 46.4618 55.4132 48.0763C51.7263 50.8064 47.8931 53.3106 43.6855 55.1836C40.2565 56.7097 36.6876 57.5189 32.9153 57.2422C29.3994 56.9837 26.3124 55.6992 23.6853 53.3314C21.8989 51.7208 21.132 49.6193 20.8094 47.3048C20.7653 46.9814 20.72 46.6618 20.6811 46.3878ZM23.5894 46.2501C24.0299 46.9034 24.3991 47.4931 24.8097 48.0503C26.394 50.2025 28.4797 51.5234 31.1535 51.8637C33.3454 52.1417 35.5074 51.9325 37.6462 51.4559C42.8552 50.2934 47.7312 48.2893 52.3145 45.5565C52.457 45.4721 52.5878 45.3682 52.8249 45.2019C43.0301 45.5526 33.3739 45.8994 23.5894 46.2501ZM56.4676 28.7131C56.4676 28.7053 56.4689 28.6962 56.4689 28.6884C56.5233 28.6923 56.579 28.7066 56.6309 28.6962C56.9379 28.6326 57.2436 28.5638 57.5493 28.4975C57.4431 28.2079 57.346 27.9143 57.2255 27.6312C57.1775 27.5182 57.0817 27.4247 57.0014 27.3273C55.8769 25.97 53.9959 25.6582 52.7588 26.6298C52.3948 26.9155 52.0657 27.2623 52.1862 27.7715C52.3041 28.2689 52.6992 28.504 53.1876 28.5365C54.2809 28.6066 55.3743 28.656 56.4676 28.7131Z" fill="#124147"/>
<path id="Vector_2" d="M39.0645 58.8748C38.9427 60.0555 38.7886 61.2348 38.7095 62.4193C38.5968 64.0897 38.707 65.7431 39.2925 67.3342C40.2071 69.8189 42.2228 70.8761 44.7968 70.2319C46.3319 69.8474 47.6325 69.0175 48.8852 68.0862C52.5539 65.3586 55.7472 62.1219 58.8212 58.7605C62.0767 55.2017 65.5575 51.9143 69.7068 49.4062C72.3145 47.8294 75.0388 46.5202 78.0766 46.0409C80.4538 45.6656 82.8205 45.6409 85.0565 46.7605C86.9374 47.7034 88.8003 49.931 87.8974 52.9391C87.6486 53.7677 87.3662 54.586 87.0825 55.4043C87.0242 55.5705 86.8973 55.7134 86.8027 55.868C86.7574 55.8563 86.712 55.8446 86.6667 55.8329C86.633 55.5952 86.6084 55.3562 86.5669 55.1185C86.1213 52.578 84.4204 51.1973 82.143 50.4037C80.0975 49.6907 78.0546 49.9608 76.0389 50.5882C72.8754 51.574 70.155 53.3378 67.7818 55.5952C63.8177 59.3632 59.9522 63.235 56.0244 67.0432C53.8351 69.1655 51.6665 71.3151 49.3762 73.3244C46.3617 75.9702 41.93 75.1025 39.6371 73.3348C38.0709 72.1256 37.5398 70.4137 37.2599 68.572C36.8933 66.1691 37.3908 63.8611 38.0644 61.579C38.3339 60.6659 38.6525 59.7684 38.9479 58.8644C38.9868 58.8683 39.0256 58.8722 39.0645 58.8748Z" fill="#124147"/>
<path id="Vector_3" d="M88.9998 38.4817C88.4389 40.1792 87.9116 41.8067 87.3507 43.4225C87.3054 43.5523 87.0333 43.6692 86.8597 43.6783C84.3595 43.8082 81.858 43.9199 79.3578 44.0329C77.7204 44.1069 76.083 44.1979 74.4455 44.2381C73.974 44.2498 73.8639 44.4213 73.8924 44.8473C73.9235 45.3149 73.9131 45.7877 73.8898 46.2565C73.8833 46.3864 73.7693 46.5111 73.7045 46.6384C73.6437 46.6163 73.5815 46.5955 73.5206 46.5735C73.5206 45.8383 73.5206 45.1045 73.5206 44.2823C69.1627 44.4641 64.8593 44.6421 60.4665 44.8252C60.7838 44.4291 61.0857 44.1186 61.3098 43.7602C62.0158 42.6302 62.7192 41.4976 63.3631 40.3312C63.5587 39.9779 63.7608 39.8325 64.1338 39.8169C65.9151 39.7428 67.6976 39.6701 69.4788 39.5753C73.9209 39.3376 78.3629 39.0908 82.805 38.8427C84.835 38.731 86.8649 38.6076 88.9998 38.4817Z" fill="#124147"/>
<path id="Vector_4" d="M52.0306 14.3257C51.4723 14.001 50.936 13.7426 50.458 13.401C49.5862 12.7788 49.5615 12.5126 50.1354 11.619C50.6419 10.8306 51.094 10.0032 51.6485 9.25116C52.3208 8.34067 53.1693 7.65618 54.3961 7.67567C55.3198 7.68995 55.9416 8.6433 55.5283 9.47067C55.4506 9.62783 55.1799 9.73953 54.983 9.7694C54.8301 9.79148 54.6474 9.66679 54.4894 9.58367C53.4919 9.06153 52.6343 9.28363 51.9711 10.2201C51.8014 10.4604 51.7819 10.6669 52.0384 10.8098C52.7859 11.228 53.5165 11.7112 54.3158 11.9891C54.7018 12.1229 55.255 11.9229 55.6812 11.7488C56.2939 11.4982 56.851 11.1163 57.4521 10.8306C57.614 10.7539 57.8472 10.8228 58.0467 10.8254C57.9793 11.0163 57.9663 11.2657 57.8355 11.3891C57.4831 11.7216 57.0777 11.9969 56.6981 12.3008C54.6759 13.9257 52.589 15.4739 50.8194 17.3949C50.6886 17.5378 50.4334 17.5664 50.2365 17.6482C50.2507 17.4261 50.1911 17.1611 50.2909 16.9897C50.7378 16.2311 51.2301 15.4973 51.7094 14.7583C51.8065 14.6128 51.9166 14.4777 52.0306 14.3257Z" fill="#124147"/>
</g>
<g id="Group 1">
<path id="Vector_5" d="M38.0207 30.0548C38.066 29.747 38.1386 29.4404 38.1502 29.1313C38.1982 27.8688 38.1865 26.6038 38.2811 25.3452C38.3264 24.7464 38.4896 24.1334 38.7241 23.5788C39.0842 22.728 39.7954 22.5085 40.7541 22.8371C41.6466 23.1436 42.1143 23.8554 41.9679 24.6867C41.8759 25.2088 41.5054 25.414 41.0196 25.2127C40.986 25.1984 40.9458 25.1932 40.9212 25.1711C39.9094 24.2996 39.1257 24.9477 39.0428 26.3102C38.9806 27.335 38.9677 28.3689 38.8109 29.3794C38.6995 30.0977 38.399 30.7899 38.1476 31.4809C38.0751 31.6822 37.8834 31.8394 37.6385 32.155C37.4922 31.7134 37.3833 31.4238 37.3004 31.125C37.1851 30.7094 37.1048 30.2834 36.9805 29.8704C36.7058 28.9612 36.0918 28.3754 35.22 28.0195C34.6733 27.7961 34.1434 27.5272 33.6175 27.2545C33.4297 27.1571 33.2677 26.9986 33.1162 26.8466C32.4684 26.1998 32.3557 25.5218 32.7806 24.9088C33.2068 24.2957 34.1266 24.0684 34.8598 24.4061C35.6202 24.7568 36.1423 25.3764 36.4416 26.1193C36.8639 27.1675 37.1696 28.2637 37.531 29.3378C37.6139 29.5846 37.715 29.8249 37.8082 30.0691C37.8795 30.0652 37.9494 30.06 38.0207 30.0548Z" fill="#E65F53"/>
<path id="Vector_6" d="M18.2599 11.1592C18.3325 10.2461 18.4076 9.33172 18.4776 8.41863C18.6149 6.64182 18.3208 4.978 17.2508 3.49862C16.4606 2.40629 16.5422 1.15161 17.4257 0.306058C17.8506 -0.10048 18.1705 -0.132951 18.4815 0.396977C18.9608 1.21395 19.387 2.07898 19.6966 2.97258C19.9945 3.83372 20.2329 4.7481 20.2886 5.6521C20.3793 7.10161 19.922 8.46539 19.2484 9.74345C18.9828 10.2474 18.6758 10.7306 18.3882 11.2241C18.3454 11.2021 18.3027 11.1813 18.2599 11.1592Z" fill="#E65F53"/>
<path id="Vector_7" d="M70.7654 69.3643C71.2913 70.2618 70.9597 71.6411 70.0814 72.3763C69.3093 73.0218 68.3364 72.9854 67.475 72.2464C66.1342 71.0969 65.8738 69.6214 66.2469 67.9719C66.6977 65.9808 67.6512 64.191 68.4932 62.3583C68.7808 61.731 69.1176 61.127 69.4311 60.5114C69.4751 60.5334 69.5192 60.5542 69.5645 60.5763C69.2173 61.5725 68.8404 62.5596 68.5295 63.5675C68.1434 64.8235 67.7522 66.0821 67.4737 67.3641C67.2483 68.407 67.5423 69.4162 68.1279 70.3007C68.6357 71.0683 69.4091 71.1034 70.0335 70.4137C70.3055 70.1137 70.5037 69.7448 70.7654 69.3643Z" fill="#E65F53"/>
<path id="Vector_8" d="M78.029 31.9134C79.1742 31.0861 80.344 30.2925 81.4555 29.4222C82.576 28.5455 83.5735 27.5402 84.251 26.1725C83.7821 25.9803 83.3701 25.8193 82.9634 25.6439C82.4037 25.4023 82.2107 25.0763 82.3273 24.4905C82.5436 23.4073 83.111 22.5098 83.9311 21.7993C84.6228 21.2006 85.4649 21.5162 85.5594 22.4085C85.6255 23.0293 85.6099 23.6775 85.5063 24.2918C85.4234 24.7802 85.4623 25.0711 85.9196 25.3439C86.6165 25.7608 86.632 26.2427 86.0608 26.87C86.0258 26.8674 85.9869 26.8739 85.9571 26.8596C84.9959 26.4115 84.9687 26.3933 84.3508 27.2779C83.2017 28.9196 81.6951 30.1704 80.0525 31.2588C79.4735 31.642 78.7778 31.8498 78.1366 32.1368C78.1016 32.0628 78.0653 31.9875 78.029 31.9134ZM84.8301 24.836C84.9817 24.0061 84.7316 23.5839 84.0412 23.3229C83.7484 23.2125 83.4971 23.2021 83.3727 23.532C83.26 23.8333 83.2328 24.1489 83.6007 24.3165C83.9894 24.4918 84.3883 24.6503 84.8301 24.836Z" fill="#E65F53"/>
</g>
</g>
</svg>
